<?xml version="1.0" encoding="UTF-8"?><svg xmlns="http://www.w3.org/2000/svg" xmlns:xlink="http://www.w3.org/1999/xlink" viewBox="0 0 350.37 344.47"><defs><linearGradient id="_Áåçûìÿííûé_ãðàäèåíò_18" x1="216.76" y1="950.64" x2="263.79" y2="950.64" gradientTransform="translate(865.61 717.96) rotate(135)" gradientUnits="userSpaceOnUse"><stop offset="0" stop-color="#d4088c"/><stop offset=".04" stop-color="#cb078b"/><stop offset=".46" stop-color="#85068a"/><stop offset=".76" stop-color="#580689"/><stop offset=".91" stop-color="#480689"/></linearGradient><linearGradient id="_Áåçûìÿííûé_ãðàäèåíò_28" x1="96.96" y1="1054.28" x2="116.44" y2="1054.28" gradientTransform="translate(160.64 1103.81) rotate(-180)" gradientUnits="userSpaceOnUse"><stop offset="0" stop-color="#6ee8fc"/><stop offset=".16" stop-color="#69e1fa"/><stop offset=".37" stop-color="#5ed0f6"/><stop offset=".61" stop-color="#4ab4f0"/><stop offset=".87" stop-color="#308ee8"/><stop offset=".96" stop-color="#267fe5"/></linearGradient><linearGradient id="_Áåçûìÿííûé_ãðàäèåíò_28-2" x1="-40.98" y1="738.04" x2="2.8" y2="738.04" gradientTransform="translate(1039.19 -70.65) rotate(71.42)" xlink:href="#_Áåçûìÿííûé_ãðàäèåíò_28"/><linearGradient id="_Áåçûìÿííûé_ãðàäèåíò_377" x1="120.92" y1="147.39" x2="232.94" y2="147.39" gradientUnits="userSpaceOnUse"><stop offset="0" stop-color="#a31fa9"/><stop offset=".07" stop-color="#8a16a0"/><stop offset=".15" stop-color="#740f98"/><stop offset=".24" stop-color="#640a92"/><stop offset=".34" stop-color="#5a068f"/><stop offset=".48" stop-color="#58068e"/><stop offset=".63" stop-color="#4d21a3"/><stop offset=".94" stop-color="#3167d9"/><stop offset="1" stop-color="#2c75e4"/></linearGradient><linearGradient id="_Áåçûìÿííûé_ãðàäèåíò_300" x1="432.57" y1="693.42" x2="485.41" y2="647.66" gradientTransform="translate(447.68 -482.28) rotate(30) skewX(-30)" gradientUnits="userSpaceOnUse"><stop offset="0" stop-color="#8d139b"/><stop offset=".17" stop-color="#841ba1"/><stop offset=".43" stop-color="#6d32b1"/><stop offset=".76" stop-color="#4958cc"/><stop offset="1" stop-color="#2979e4"/></linearGradient><linearGradient id="_Áåçûìÿííûé_ãðàäèåíò_377-2" y1="129.47" y2="129.47" xlink:href="#_Áåçûìÿííûé_ãðàäèåíò_377"/><linearGradient id="_Áåçûìÿííûé_ãðàäèåíò_300-2" x1="414.65" y1="677.91" x2="467.49" y2="632.15" xlink:href="#_Áåçûìÿííûé_ãðàäèåíò_300"/><linearGradient id="_Áåçûìÿííûé_ãðàäèåíò_377-3" y1="111.56" y2="111.56" xlink:href="#_Áåçûìÿííûé_ãðàäèåíò_377"/><linearGradient id="_Áåçûìÿííûé_ãðàäèåíò_300-3" x1="396.73" y1="662.39" x2="449.57" y2="616.63" xlink:href="#_Áåçûìÿííûé_ãðàäèåíò_300"/><linearGradient id="_Áåçûìÿííûé_ãðàäèåíò_377-4" y1="93.64" y2="93.64" xlink:href="#_Áåçûìÿííûé_ãðàäèåíò_377"/><linearGradient id="_Áåçûìÿííûé_ãðàäèåíò_73" x1="378.82" y1="646.88" x2="431.66" y2="601.12" gradientTransform="translate(447.68 -482.28) rotate(30) skewX(-30)" gradientUnits="userSpaceOnUse"><stop offset="0" stop-color="#267fe5"/><stop offset=".17" stop-color="#2c87e6"/><stop offset=".44" stop-color="#3d9eeb"/><stop offset=".78" stop-color="#58c4f2"/><stop offset="1" stop-color="#6ee1f8"/></linearGradient><linearGradient id="_Áåçûìÿííûé_ãðàäèåíò_88" x1="141.03" y1="80.63" x2="210.15" y2="80.63" gradientUnits="userSpaceOnUse"><stop offset="0" stop-color="#6de0f6"/><stop offset=".16" stop-color="#67d7f4"/><stop offset=".41" stop-color="#59c0f0"/><stop offset=".73" stop-color="#429aea"/><stop offset="1" stop-color="#2c75e4"/></linearGradient><linearGradient id="_Áåçûìÿííûé_ãðàäèåíò_377-5" x1="183.64" y1="186.61" x2="295.66" y2="186.61" xlink:href="#_Áåçûìÿííûé_ãðàäèåíò_377"/><linearGradient id="_Áåçûìÿííûé_ãðàäèåíò_300-4" x1="508" y1="696.03" x2="560.84" y2="650.27" xlink:href="#_Áåçûìÿííûé_ãðàäèåíò_300"/><linearGradient id="_Áåçûìÿííûé_ãðàäèåíò_377-6" x1="183.64" y1="168.69" x2="295.66" y2="168.69" xlink:href="#_Áåçûìÿííûé_ãðàäèåíò_377"/><linearGradient id="_Áåçûìÿííûé_ãðàäèåíò_300-5" x1="490.09" y1="680.51" x2="542.92" y2="634.75" xlink:href="#_Áåçûìÿííûé_ãðàäèåíò_300"/><linearGradient id="_Áåçûìÿííûé_ãðàäèåíò_377-7" x1="183.64" y1="150.78" x2="295.66" y2="150.78" xlink:href="#_Áåçûìÿííûé_ãðàäèåíò_377"/><linearGradient id="_Áåçûìÿííûé_ãðàäèåíò_300-6" x1="472.17" y1="665" x2="525.01" y2="619.24" xlink:href="#_Áåçûìÿííûé_ãðàäèåíò_300"/><linearGradient id="_Áåçûìÿííûé_ãðàäèåíò_377-8" x1="183.64" y1="132.86" x2="295.66" y2="132.86" xlink:href="#_Áåçûìÿííûé_ãðàäèåíò_377"/><linearGradient id="_Áåçûìÿííûé_ãðàäèåíò_73-2" x1="454.25" y1="649.48" x2="507.09" y2="603.72" xlink:href="#_Áåçûìÿííûé_ãðàäèåíò_73"/><linearGradient id="_Áåçûìÿííûé_ãðàäèåíò_88-2" x1="203.75" y1="119.85" x2="272.87" y2="119.85" xlink:href="#_Áåçûìÿííûé_ãðàäèåíò_88"/><linearGradient id="_Áåçûìÿííûé_ãðàäèåíò_377-9" x1="57.83" y1="183.4" x2="169.85" y2="183.4" xlink:href="#_Áåçûìÿííûé_ãðàäèåíò_377"/><linearGradient id="_Áåçûìÿííûé_ãðàäèåíò_300-7" x1="432.15" y1="756.15" x2="484.99" y2="710.39" xlink:href="#_Áåçûìÿííûé_ãðàäèåíò_300"/><linearGradient id="_Áåçûìÿííûé_ãðàäèåíò_377-10" x1="57.83" y1="165.48" x2="169.85" y2="165.48" xlink:href="#_Áåçûìÿííûé_ãðàäèåíò_377"/><linearGradient id="_Áåçûìÿííûé_ãðàäèåíò_300-8" x1="414.23" y1="740.63" x2="467.07" y2="694.87" xlink:href="#_Áåçûìÿííûé_ãðàäèåíò_300"/><linearGradient id="_Áåçûìÿííûé_ãðàäèåíò_377-11" x1="57.83" y1="147.56" x2="169.85" y2="147.56" xlink:href="#_Áåçûìÿííûé_ãðàäèåíò_377"/><linearGradient id="_Áåçûìÿííûé_ãðàäèåíò_300-9" x1="396.32" y1="725.12" x2="449.15" y2="679.36" xlink:href="#_Áåçûìÿííûé_ãðàäèåíò_300"/><linearGradient id="_Áåçûìÿííûé_ãðàäèåíò_377-12" x1="57.83" y1="129.65" x2="169.85" y2="129.65" xlink:href="#_Áåçûìÿííûé_ãðàäèåíò_377"/><linearGradient id="_Áåçûìÿííûé_ãðàäèåíò_73-3" x1="378.4" y1="709.6" x2="431.24" y2="663.84" xlink:href="#_Áåçûìÿííûé_ãðàäèåíò_73"/><linearGradient id="_Áåçûìÿííûé_ãðàäèåíò_88-3" x1="77.94" y1="116.64" x2="147.06" y2="116.64" xlink:href="#_Áåçûìÿííûé_ãðàäèåíò_88"/><linearGradient id="_Áåçûìÿííûé_ãðàäèåíò_377-13" x1="120.55" y1="222.62" x2="232.57" y2="222.62" xlink:href="#_Áåçûìÿííûé_ãðàäèåíò_377"/><linearGradient id="_Áåçûìÿííûé_ãðàäèåíò_300-10" x1="507.58" y1="758.75" x2="560.42" y2="712.99" xlink:href="#_Áåçûìÿííûé_ãðàäèåíò_300"/><linearGradient id="_Áåçûìÿííûé_ãðàäèåíò_377-14" x1="120.55" y1="204.7" x2="232.57" y2="204.7" xlink:href="#_Áåçûìÿííûé_ãðàäèåíò_377"/><linearGradient id="_Áåçûìÿííûé_ãðàäèåíò_300-11" x1="489.67" y1="743.24" x2="542.51" y2="697.48" xlink:href="#_Áåçûìÿííûé_ãðàäèåíò_300"/><linearGradient id="_Áåçûìÿííûé_ãðàäèåíò_377-15" x1="120.55" y1="186.78" x2="232.57" y2="186.78" xlink:href="#_Áåçûìÿííûé_ãðàäèåíò_377"/><linearGradient id="_Áåçûìÿííûé_ãðàäèåíò_300-12" x1="471.75" y1="727.72" x2="524.59" y2="681.96" xlink:href="#_Áåçûìÿííûé_ãðàäèåíò_300"/><linearGradient id="_Áåçûìÿííûé_ãðàäèåíò_377-16" x1="120.55" y1="168.87" x2="232.57" y2="168.87" xlink:href="#_Áåçûìÿííûé_ãðàäèåíò_377"/><linearGradient id="_Áåçûìÿííûé_ãðàäèåíò_73-4" x1="453.83" y1="712.21" x2="506.67" y2="666.45" xlink:href="#_Áåçûìÿííûé_ãðàäèåíò_73"/><linearGradient id="_Áåçûìÿííûé_ãðàäèåíò_88-4" x1="140.79" y1="155.86" x2="209.65" y2="155.86" xlink:href="#_Áåçûìÿííûé_ãðàäèåíò_88"/><linearGradient id="_Áåçûìÿííûé_ãðàäèåíò_300-13" x1="378.82" y1="646.88" x2="431.66" y2="601.12" xlink:href="#_Áåçûìÿííûé_ãðàäèåíò_300"/><linearGradient id="_Áåçûìÿííûé_ãðàäèåíò_73-5" x1="387.62" y1="639.26" x2="423.22" y2="608.42" xlink:href="#_Áåçûìÿííûé_ãðàäèåíò_73"/><linearGradient id="_Áåçûìÿííûé_ãðàäèåíò_300-14" x1="454.25" y1="649.48" x2="507.09" y2="603.72" xlink:href="#_Áåçûìÿííûé_ãðàäèåíò_300"/><linearGradient id="_Áåçûìÿííûé_ãðàäèåíò_300-15" x1="378.4" y1="709.6" x2="431.24" y2="663.84" xlink:href="#_Áåçûìÿííûé_ãðàäèåíò_300"/><linearGradient id="_Áåçûìÿííûé_ãðàäèåíò_73-6" x1="453.83" y1="712.21" x2="506.67" y2="666.45" xlink:href="#_Áåçûìÿííûé_ãðàäèåíò_73"/><linearGradient id="_Áåçûìÿííûé_ãðàäèåíò_42" x1="467.64" y1="705.02" x2="494.39" y2="672.16" gradientTransform="translate(447.68 -482.28) rotate(30) skewX(-30)" gradientUnits="userSpaceOnUse"><stop offset="0" stop-color="#a31fa9"/><stop offset=".05" stop-color="#8a16a0"/><stop offset=".11" stop-color="#740f98"/><stop offset=".18" stop-color="#640a92"/><stop offset=".26" stop-color="#5a068f"/><stop offset=".36" stop-color="#58068e"/><stop offset=".54" stop-color="#4d21a3"/><stop offset=".93" stop-color="#3167d9"/><stop offset="1" stop-color="#2c75e4"/></linearGradient></defs><g isolation="isolate"><g id="_Ñëîé_1"><g opacity=".5"><circle cx="23.51" cy="215.66" r="23.51" fill="url(#_Áåçûìÿííûé_ãðàäèåíò_18)" stroke-width="0"/><circle cx="53.94" cy="49.53" r="9.74" fill="url(#_Áåçûìÿííûé_ãðàäèåíò_28)" stroke-width="0"/><circle cx="332.87" cy="144.37" r="17.5" transform="translate(-4.59 277.66) rotate(-45)" fill="url(#_Áåçûìÿííûé_ãðàäèåíò_28-2)" stroke-width="0"/><path d="M337.35,215.25c-7.04,1.37-14.66-.82-17.02-4.88-2.37-4.06,1.42-8.46,8.46-9.83,7.04-1.37,14.66.82,17.02,4.88,2.37,4.06-1.42,8.46-8.46,9.83Z" fill="#0c0f38" opacity=".8" stroke-width="0"/><path d="M29.75,294.49c-9.79,1.9-20.39-1.14-23.69-6.79-3.29-5.65,1.98-11.77,11.77-13.67,9.79-1.9,20.39,1.14,23.69,6.8,3.29,5.65-1.98,11.77-11.77,13.67Z" fill="#0c0f38" opacity=".8" stroke-width="0"/><path d="M56.08,88.89c-3.51.68-7.32-.41-8.5-2.44-1.18-2.03.71-4.23,4.22-4.91s7.32.41,8.5,2.44c1.18,2.03-.71,4.23-4.22,4.91Z" fill="#0c0f38" opacity=".8" stroke-width="0"/><circle cx="118.26" cy="9.02" r="2.49" fill="#d4088c" mix-blend-mode="lighten" opacity=".8" stroke-width="0"/><circle cx="74.54" cy="262.66" r="3.01" fill="#d4088c" mix-blend-mode="lighten" opacity=".8" stroke-width="0"/><path d="M57.04,249.36c0,.85-.69,1.55-1.55,1.55s-1.55-.69-1.55-1.55.69-1.55,1.55-1.55,1.55.69,1.55,1.55Z" fill="#6ee8fc" mix-blend-mode="lighten" stroke-width="0"/><path d="M319.63,192.25c0,.88-.72,1.6-1.6,1.6s-1.6-.72-1.6-1.6.72-1.6,1.6-1.6,1.6.72,1.6,1.6Z" fill="#6ee8fc" mix-blend-mode="lighten" stroke-width="0"/><path d="M23.79,84.32c0,1.24-1.01,2.25-2.25,2.25s-2.25-1.01-2.25-2.25,1.01-2.25,2.25-2.25,2.25,1.01,2.25,2.25Z" fill="#6ee8fc" mix-blend-mode="lighten" stroke-width="0"/><path d="M192,2.25c0,1.24-1.01,2.25-2.25,2.25s-2.25-1.01-2.25-2.25,1.01-2.25,2.25-2.25,2.25,1.01,2.25,2.25Z" fill="#6ee8fc" mix-blend-mode="lighten" stroke-width="0"/><path d="M32.95,79.33c0,.69-.56,1.25-1.25,1.25s-1.25-.56-1.25-1.25.56-1.25,1.25-1.25,1.25.56,1.25,1.25Z" fill="#6ee8fc" mix-blend-mode="lighten" stroke-width="0"/><path d="M247.48,10.29c0,.81-.66,1.47-1.47,1.47s-1.47-.66-1.47-1.47.66-1.47,1.47-1.47,1.47.66,1.47,1.47Z" fill="#d4088c" mix-blend-mode="lighten" stroke-width="0"/><path d="M179.16,15.05c-2.62,0-4.76-2.14-4.76-4.76s2.14-4.76,4.76-4.76,4.76,2.14,4.76,4.76-2.13,4.76-4.76,4.76ZM179.16,7.53c-1.52,0-2.76,1.24-2.76,2.76s1.24,2.76,2.76,2.76,2.76-1.24,2.76-2.76-1.24-2.76-2.76-2.76Z" fill="#6ee1f8" stroke-width="0"/></g><g opacity=".5"><path d="M170.56,198.71l-39.07-22.56c-2.78-1.6-2.43-4.41.78-6.26l37.51-21.66c3.21-1.85,8.06-2.05,10.84-.45l39.07,22.56c2.78,1.6,2.43,4.41-.78,6.26l-37.51,21.66c-3.21,1.85-8.06,2.05-10.84.45Z" fill="#0c0f38" stroke-width="0"/><path d="M233.28,237.93l-39.07-22.56c-2.78-1.6-2.43-4.41.78-6.26l37.51-21.66c3.21-1.85,8.06-2.05,10.84-.45l39.07,22.56c2.78,1.6,2.43,4.41-.78,6.26l-37.51,21.66c-3.21,1.85-8.06,2.05-10.84.45Z" fill="#0c0f38" stroke-width="0"/><path d="M107.47,234.72l-39.07-22.56c-2.78-1.6-2.43-4.41.78-6.26l37.51-21.66c3.21-1.85,8.06-2.05,10.84-.45l39.07,22.56c2.78,1.6,2.43,4.41-.78,6.26l-37.51,21.66c-3.21,1.85-8.06,2.05-10.84.45Z" fill="#0c0f38" stroke-width="0"/><path d="M170.19,273.94l-39.07-22.56c-2.78-1.6-2.43-4.41.78-6.26l37.51-21.66c3.21-1.85,8.06-2.05,10.84-.45l39.07,22.56c2.78,1.6,2.43,4.41-.78,6.26l-37.51,21.66c-3.21,1.85-8.06,2.05-10.84.45Z" fill="#0c0f38" stroke-width="0"/></g><path d="M170.57,188.23l-39.07-22.56c-2.78-1.6-2.43-4.41.78-6.26l37.51-21.66c3.21-1.85,8.06-2.05,10.84-.45l39.07,22.56c2.78,1.6,2.43,4.41-.78,6.26l-37.51,21.66c-3.21,1.85-8.06,2.05-10.84.45Z" fill="#0c0f38" stroke-width="0"/><g opacity=".4"><path d="M221.56,134.38h-19.38l-21.57-12.45c-2.78-1.6-7.63-1.4-10.84.45l-20.79,12h-19.37v13.01h0c-.08,1.09.53,2.13,1.86,2.9l39.07,22.56c2.78,1.6,7.63,1.4,10.84-.45l37.51-21.66c1.67-.96,2.55-2.18,2.64-3.35h.01v-13.01Z" fill="url(#_Áåçûìÿííûé_ãðàäèåíò_377)" stroke-width="0"/><path d="M130.85,148.29h0v-13.01h19.37l20.79-12c3.21-1.85,8.06-2.05,10.84-.45l21.57,12.45h18.15v-.9h-19.38l-21.57-12.45c-2.78-1.6-7.63-1.4-10.84.45l-20.79,12h-19.37v13.01h0c-.08,1.09.53,2.13,1.86,2.9l.22.13c-.63-.64-.91-1.38-.86-2.13Z" fill="#d4088c" stroke-width="0"/><path d="M170.56,159.84l-39.07-22.56c-2.78-1.6-2.43-4.41.78-6.26l37.51-21.66c3.21-1.85,8.06-2.05,10.84-.45l39.07,22.56c2.78,1.6,2.43,4.41-.78,6.26l-37.51,21.66c-3.21,1.85-8.06,2.05-10.84.45Z" fill="url(#_Áåçûìÿííûé_ãðàäèåíò_300)" stroke-width="0"/><path d="M219.68,131.48l-39.07-22.56c-1.44-.83-3.43-1.17-5.47-1.06,1.48.09,2.87.44,3.94,1.06l39.07,22.56c2.78,1.6,2.43,4.41-.78,6.26l-37.51,21.66c-1.55.89-3.47,1.4-5.37,1.51,2.35.14,4.93-.37,6.9-1.51l37.51-21.66c3.21-1.85,3.56-4.65.78-6.26Z" fill="#6ee8fc" stroke-width="0"/><path d="M175.35,154.47c-1.37,0-2.69-.28-3.67-.84l-29.09-16.79c-1.01-.58-1.56-1.4-1.56-2.31,0-1.07.78-2.14,2.14-2.92l27.93-16.12c2.47-1.43,6.24-1.58,8.4-.33l29.09,16.79c1.01.58,1.56,1.4,1.56,2.31,0,1.07-.78,2.14-2.14,2.92l-27.93,16.12c-1.35.78-3.08,1.18-4.73,1.18ZM175.83,114.95c-1.53,0-3.14.37-4.4,1.1l-27.93,16.12c-1.15.66-1.81,1.52-1.81,2.35,0,.66.44,1.28,1.23,1.73l29.09,16.79c1.97,1.14,5.44.99,7.73-.33l27.93-16.12c1.15-.66,1.81-1.52,1.81-2.35,0-.66-.44-1.28-1.23-1.73l-29.09-16.79c-.89-.51-2.08-.76-3.34-.76Z" fill="#480689" stroke-width="0"/><path d="M172.31,159.84l-39.07-22.56c-2.78-1.6-2.43-4.41.78-6.26l37.51-21.66c1.52-.88,3.42-1.38,5.28-1.5-2.38-.17-5.03.34-7.03,1.5l-37.51,21.66c-3.21,1.85-3.56,4.65-.78,6.26l39.07,22.56c1.46.84,3.49,1.18,5.56,1.05-1.43-.1-2.76-.45-3.8-1.05Z" fill="#d4088c" stroke-width="0"/></g><g opacity=".5"><path d="M221.56,116.47h-19.38l-21.57-12.45c-2.78-1.6-7.63-1.4-10.84.45l-20.79,12h-19.37v13.01h0c-.08,1.09.53,2.13,1.86,2.9l39.07,22.56c2.78,1.6,7.63,1.4,10.84-.45l37.51-21.66c1.67-.96,2.55-2.18,2.64-3.35h.01v-13.01Z" fill="url(#_Áåçûìÿííûé_ãðàäèåíò_377-2)" stroke-width="0"/><path d="M130.85,130.37h0v-13.01h19.37l20.79-12c3.21-1.85,8.06-2.05,10.84-.45l21.57,12.45h18.15v-.9h-19.38l-21.57-12.45c-2.78-1.6-7.63-1.4-10.84.45l-20.79,12h-19.37v13.01h0c-.08,1.09.53,2.13,1.86,2.9l.22.13c-.63-.64-.91-1.38-.86-2.13Z" fill="#d4088c" stroke-width="0"/><path d="M170.56,141.93l-39.07-22.56c-2.78-1.6-2.43-4.41.78-6.26l37.51-21.66c3.21-1.85,8.06-2.05,10.84-.45l39.07,22.56c2.78,1.6,2.43,4.41-.78,6.26l-37.51,21.66c-3.21,1.85-8.06,2.05-10.84.45Z" fill="url(#_Áåçûìÿííûé_ãðàäèåíò_300-2)" stroke-width="0"/><path d="M219.68,113.56l-39.07-22.56c-1.44-.83-3.43-1.17-5.47-1.06,1.48.09,2.87.44,3.94,1.06l39.07,22.56c2.78,1.6,2.43,4.41-.78,6.26l-37.51,21.66c-1.55.89-3.47,1.4-5.37,1.51,2.35.14,4.93-.37,6.9-1.51l37.51-21.66c3.21-1.85,3.56-4.65.78-6.26Z" fill="#6ee8fc" stroke-width="0"/><path d="M175.35,136.55c-1.37,0-2.69-.28-3.67-.84l-29.09-16.79c-1.01-.58-1.56-1.4-1.56-2.31,0-1.07.78-2.14,2.14-2.92l27.93-16.12c2.48-1.43,6.25-1.58,8.4-.33l29.09,16.79c1.01.58,1.56,1.4,1.56,2.31,0,1.07-.78,2.14-2.14,2.92l-27.93,16.12c-1.35.78-3.08,1.18-4.73,1.18ZM172.01,135.13c1.97,1.14,5.44.99,7.73-.33l27.93-16.12c1.15-.66,1.81-1.52,1.81-2.35,0-.66-.44-1.28-1.23-1.73l-29.09-16.79c-1.97-1.14-5.44-.99-7.73.33l-27.93,16.12c-1.15.66-1.81,1.52-1.81,2.35,0,.66.44,1.28,1.23,1.73l29.09,16.79Z" fill="#480689" stroke-width="0"/><path d="M172.31,141.93l-39.07-22.56c-2.78-1.6-2.43-4.41.78-6.26l37.51-21.66c1.52-.88,3.42-1.38,5.28-1.5-2.38-.17-5.03.34-7.03,1.5l-37.51,21.66c-3.21,1.85-3.56,4.65-.78,6.26l39.07,22.56c1.46.84,3.49,1.18,5.56,1.05-1.43-.1-2.76-.45-3.8-1.05Z" fill="#d4088c" stroke-width="0"/></g><g opacity=".7"><path d="M221.56,98.55h-19.38l-21.57-12.45c-2.78-1.6-7.63-1.4-10.84.45l-20.79,12h-19.37v13.01h0c-.08,1.09.53,2.13,1.86,2.9l39.07,22.56c2.78,1.6,7.63,1.4,10.84-.45l37.51-21.66c1.67-.96,2.55-2.18,2.64-3.35h.01v-13.01Z" fill="url(#_Áåçûìÿííûé_ãðàäèåíò_377-3)" stroke-width="0"/><path d="M130.85,112.45h0v-13.01h19.37l20.79-12c3.21-1.85,8.06-2.05,10.84-.45l21.57,12.45h18.15v-.9h-19.38l-21.57-12.45c-2.78-1.6-7.63-1.4-10.84.45l-20.79,12h-19.37v13.01h0c-.08,1.09.53,2.13,1.86,2.9l.22.13c-.63-.64-.91-1.38-.86-2.13Z" fill="#d4088c" stroke-width="0"/><path d="M170.56,124.01l-39.07-22.56c-2.78-1.6-2.43-4.41.78-6.26l37.51-21.66c3.21-1.85,8.06-2.05,10.84-.45l39.07,22.56c2.78,1.6,2.43,4.41-.78,6.26l-37.51,21.66c-3.21,1.85-8.06,2.05-10.84.45Z" fill="url(#_Áåçûìÿííûé_ãðàäèåíò_300-3)" stroke-width="0"/><path d="M219.68,95.64l-39.07-22.56c-1.44-.83-3.43-1.17-5.47-1.06,1.48.09,2.87.44,3.94,1.06l39.07,22.56c2.78,1.6,2.43,4.41-.78,6.26l-37.51,21.66c-1.55.89-3.47,1.4-5.37,1.51,2.35.14,4.93-.37,6.9-1.51l37.51-21.66c3.21-1.85,3.56-4.65.78-6.26Z" fill="#6ee8fc" stroke-width="0"/><path d="M175.35,118.64c-1.38,0-2.69-.28-3.67-.84l-29.09-16.79c-1.01-.58-1.56-1.4-1.56-2.31,0-1.07.78-2.14,2.14-2.92l27.93-16.12c2.47-1.43,6.24-1.58,8.4-.33l29.09,16.79c1.01.58,1.56,1.4,1.56,2.31,0,1.07-.78,2.14-2.14,2.92l-27.93,16.12c-1.35.78-3.08,1.18-4.73,1.18ZM172.01,117.21c1.97,1.14,5.44.99,7.73-.33l27.93-16.12c1.15-.66,1.81-1.52,1.81-2.35,0-.66-.44-1.28-1.23-1.73l-29.09-16.79c-1.97-1.14-5.44-.99-7.73.33l-27.93,16.12c-1.15.66-1.81,1.52-1.81,2.35,0,.66.44,1.28,1.23,1.73l29.09,16.79Z" fill="#480689" stroke-width="0"/><path d="M172.31,124.01l-39.07-22.56c-2.78-1.6-2.43-4.41.78-6.26l37.51-21.66c1.52-.88,3.42-1.38,5.28-1.5-2.38-.17-5.03.34-7.03,1.5l-37.51,21.66c-3.21,1.85-3.56,4.65-.78,6.26l39.07,22.56c1.46.84,3.49,1.18,5.56,1.05-1.43-.1-2.76-.45-3.8-1.05Z" fill="#d4088c" stroke-width="0"/></g><path d="M221.56,80.63h-19.38l-21.57-12.45c-2.78-1.6-7.63-1.4-10.84.45l-20.79,12h-19.37v13.01h0c-.08,1.09.53,2.13,1.86,2.9l39.07,22.56c2.78,1.6,7.63,1.4,10.84-.45l37.51-21.66c1.67-.96,2.55-2.18,2.64-3.35h.01v-13.01Z" fill="url(#_Áåçûìÿííûé_ãðàäèåíò_377-4)" stroke-width="0"/><path d="M130.85,94.53h0v-13.01h19.37l20.79-12c3.21-1.85,8.06-2.05,10.84-.45l21.57,12.45h18.15v-.9h-19.38l-21.57-12.45c-2.78-1.6-7.63-1.4-10.84.45l-20.79,12h-19.37v13.01h0c-.08,1.09.53,2.13,1.86,2.9l.22.13c-.63-.64-.91-1.38-.86-2.13Z" fill="#d4088c" stroke-width="0"/><path d="M170.56,106.09l-39.07-22.56c-2.78-1.6-2.43-4.41.78-6.26l37.51-21.66c3.21-1.85,8.06-2.05,10.84-.45l39.07,22.56c2.78,1.6,2.43,4.41-.78,6.26l-37.51,21.66c-3.21,1.85-8.06,2.05-10.84.45Z" fill="url(#_Áåçûìÿííûé_ãðàäèåíò_73)" stroke-width="0"/><path d="M219.68,77.73l-39.07-22.56c-1.44-.83-3.43-1.17-5.47-1.06,1.48.09,2.87.44,3.94,1.06l39.07,22.56c2.78,1.6,2.43,4.41-.78,6.26l-37.51,21.66c-1.55.89-3.47,1.4-5.37,1.51,2.35.14,4.93-.37,6.9-1.51l37.51-21.66c3.21-1.85,3.56-4.65.78-6.26Z" fill="#6ee8fc" stroke-width="0"/><path d="M175.35,100.72c-1.37,0-2.69-.28-3.67-.84l-29.09-16.79c-1.01-.58-1.56-1.4-1.56-2.31,0-1.07.78-2.14,2.14-2.92l27.93-16.12c2.47-1.43,6.24-1.58,8.4-.33l29.09,16.79c1.01.58,1.56,1.4,1.56,2.31,0,1.07-.78,2.14-2.14,2.92l-27.93,16.12c-1.35.78-3.08,1.18-4.73,1.18ZM172.01,99.3c1.97,1.14,5.44.99,7.73-.33l27.93-16.12c1.15-.66,1.81-1.52,1.81-2.35,0-.66-.44-1.28-1.23-1.73l-29.09-16.79c-1.97-1.14-5.44-.99-7.73.33l-27.93,16.12c-1.15.66-1.81,1.52-1.81,2.35,0,.66.44,1.28,1.23,1.73l29.09,16.79Z" fill="url(#_Áåçûìÿííûé_ãðàäèåíò_88)" stroke-width="0"/><path d="M172.31,106.09l-39.07-22.56c-2.78-1.6-2.43-4.41.78-6.26l37.51-21.66c1.52-.88,3.42-1.38,5.28-1.5-2.38-.17-5.03.34-7.03,1.5l-37.51,21.66c-3.21,1.85-3.56,4.65-.78,6.26l39.07,22.56c1.46.84,3.49,1.18,5.56,1.05-1.43-.1-2.76-.45-3.8-1.05Z" fill="#25bfec" stroke-width="0"/><g opacity=".4"><path d="M284.28,173.6h-19.38l-21.57-12.45c-2.78-1.6-7.63-1.4-10.84.45l-20.79,12h-19.37v13.01h0c-.08,1.09.53,2.13,1.86,2.9l39.07,22.56c2.78,1.6,7.63,1.4,10.84-.45l37.51-21.66c1.67-.96,2.55-2.18,2.64-3.35h.01v-13.01Z" fill="url(#_Áåçûìÿííûé_ãðàäèåíò_377-5)" stroke-width="0"/><path d="M193.57,187.51h0v-13.01h19.37l20.79-12c3.21-1.85,8.06-2.05,10.84-.45l21.57,12.45h18.15v-.9h-19.38l-21.57-12.45c-2.78-1.6-7.63-1.4-10.84.45l-20.79,12h-19.37v13.01h0c-.08,1.09.53,2.13,1.86,2.9l.22.13c-.63-.64-.91-1.38-.86-2.13Z" fill="#d4088c" stroke-width="0"/><path d="M233.28,199.06l-39.07-22.56c-2.78-1.6-2.43-4.41.78-6.26l37.51-21.66c3.21-1.85,8.06-2.05,10.84-.45l39.07,22.56c2.78,1.6,2.43,4.41-.78,6.26l-37.51,21.66c-3.21,1.85-8.06,2.05-10.84.45Z" fill="url(#_Áåçûìÿííûé_ãðàäèåíò_300-4)" stroke-width="0"/><path d="M282.41,170.7l-39.07-22.56c-1.44-.83-3.43-1.17-5.47-1.06,1.48.09,2.87.44,3.94,1.06l39.07,22.56c2.78,1.6,2.43,4.41-.78,6.26l-37.51,21.66c-1.55.89-3.47,1.4-5.37,1.51,2.35.14,4.93-.37,6.9-1.51l37.51-21.66c3.21-1.85,3.56-4.65.78-6.26Z" fill="#6ee8fc" stroke-width="0"/><path d="M238.07,193.69c-1.37,0-2.69-.28-3.67-.84l-29.09-16.79c-1.01-.58-1.56-1.4-1.56-2.31,0-1.07.78-2.14,2.14-2.92l27.93-16.12c2.47-1.43,6.24-1.58,8.4-.33l29.09,16.79c1.01.58,1.56,1.4,1.56,2.31,0,1.07-.78,2.14-2.14,2.92l-27.93,16.12c-1.35.78-3.08,1.18-4.73,1.18ZM238.55,154.17c-1.53,0-3.14.37-4.4,1.1l-27.93,16.12c-1.15.66-1.81,1.52-1.81,2.35,0,.66.44,1.28,1.23,1.73l29.09,16.79c1.97,1.14,5.44.99,7.73-.33l27.93-16.12c1.15-.66,1.81-1.52,1.81-2.35,0-.66-.44-1.28-1.23-1.73l-29.09-16.79c-.89-.51-2.08-.76-3.34-.76Z" fill="#480689" stroke-width="0"/><path d="M235.03,199.06l-39.07-22.56c-2.78-1.6-2.43-4.41.78-6.26l37.51-21.66c1.52-.88,3.42-1.38,5.28-1.5-2.38-.17-5.03.34-7.03,1.5l-37.51,21.66c-3.21,1.85-3.56,4.65-.78,6.26l39.07,22.56c1.46.84,3.49,1.18,5.56,1.05-1.43-.1-2.76-.45-3.8-1.05Z" fill="#d4088c" stroke-width="0"/></g><g opacity=".5"><path d="M284.28,155.69h-19.38l-21.57-12.45c-2.78-1.6-7.63-1.4-10.84.45l-20.79,12h-19.37v13.01h0c-.08,1.09.53,2.13,1.86,2.9l39.07,22.56c2.78,1.6,7.63,1.4,10.84-.45l37.51-21.66c1.67-.96,2.55-2.18,2.64-3.35h.01v-13.01Z" fill="url(#_Áåçûìÿííûé_ãðàäèåíò_377-6)" stroke-width="0"/><path d="M193.57,169.59h0v-13.01h19.37l20.79-12c3.21-1.85,8.06-2.05,10.84-.45l21.57,12.45h18.15v-.9h-19.38l-21.57-12.45c-2.78-1.6-7.63-1.4-10.84.45l-20.79,12h-19.37v13.01h0c-.08,1.09.53,2.13,1.86,2.9l.22.13c-.63-.64-.91-1.38-.86-2.13Z" fill="#d4088c" stroke-width="0"/><path d="M233.28,181.15l-39.07-22.56c-2.78-1.6-2.43-4.41.78-6.26l37.51-21.66c3.21-1.85,8.06-2.05,10.84-.45l39.07,22.56c2.78,1.6,2.43,4.41-.78,6.26l-37.51,21.66c-3.21,1.85-8.06,2.05-10.84.45Z" fill="url(#_Áåçûìÿííûé_ãðàäèåíò_300-5)" stroke-width="0"/><path d="M282.41,152.78l-39.07-22.56c-1.44-.83-3.43-1.17-5.47-1.06,1.48.09,2.87.44,3.94,1.06l39.07,22.56c2.78,1.6,2.43,4.41-.78,6.26l-37.51,21.66c-1.55.89-3.47,1.4-5.37,1.51,2.35.14,4.93-.37,6.9-1.51l37.51-21.66c3.21-1.85,3.56-4.65.78-6.26Z" fill="#6ee8fc" stroke-width="0"/><path d="M238.07,175.77c-1.37,0-2.69-.28-3.67-.84l-29.09-16.79c-1.01-.58-1.56-1.4-1.56-2.31,0-1.07.78-2.14,2.14-2.92l27.93-16.12c2.48-1.43,6.24-1.58,8.4-.33l29.09,16.79c1.01.58,1.56,1.4,1.56,2.31,0,1.07-.78,2.14-2.14,2.92l-27.93,16.12c-1.35.78-3.08,1.18-4.73,1.18ZM234.73,174.35c1.97,1.14,5.44.99,7.73-.33l27.93-16.12c1.15-.66,1.81-1.52,1.81-2.35,0-.66-.44-1.28-1.23-1.73l-29.09-16.79c-1.97-1.14-5.44-.99-7.73.33l-27.93,16.12c-1.15.66-1.81,1.52-1.81,2.35,0,.66.44,1.28,1.23,1.73l29.09,16.79Z" fill="#480689" stroke-width="0"/><path d="M235.03,181.15l-39.07-22.56c-2.78-1.6-2.43-4.41.78-6.26l37.51-21.66c1.52-.88,3.42-1.38,5.28-1.5-2.38-.17-5.03.34-7.03,1.5l-37.51,21.66c-3.21,1.85-3.56,4.65-.78,6.26l39.07,22.56c1.46.84,3.49,1.18,5.56,1.05-1.43-.1-2.76-.45-3.8-1.05Z" fill="#d4088c" stroke-width="0"/></g><g opacity=".7"><path d="M284.28,137.77h-19.38l-21.57-12.45c-2.78-1.6-7.63-1.4-10.84.45l-20.79,12h-19.37v13.01h0c-.08,1.09.53,2.13,1.86,2.9l39.07,22.56c2.78,1.6,7.63,1.4,10.84-.45l37.51-21.66c1.67-.96,2.55-2.18,2.64-3.35h.01v-13.01Z" fill="url(#_Áåçûìÿííûé_ãðàäèåíò_377-7)" stroke-width="0"/><path d="M193.57,151.67h0v-13.01h19.37l20.79-12c3.21-1.85,8.06-2.05,10.84-.45l21.57,12.45h18.15v-.9h-19.38l-21.57-12.45c-2.78-1.6-7.63-1.4-10.84.45l-20.79,12h-19.37v13.01h0c-.08,1.09.53,2.13,1.86,2.9l.22.13c-.63-.64-.91-1.38-.86-2.13Z" fill="#d4088c" stroke-width="0"/><path d="M233.28,163.23l-39.07-22.56c-2.78-1.6-2.43-4.41.78-6.26l37.51-21.66c3.21-1.85,8.06-2.05,10.84-.45l39.07,22.56c2.78,1.6,2.43,4.41-.78,6.26l-37.51,21.66c-3.21,1.85-8.06,2.05-10.84.45Z" fill="url(#_Áåçûìÿííûé_ãðàäèåíò_300-6)" stroke-width="0"/><path d="M282.41,134.87l-39.07-22.56c-1.44-.83-3.43-1.17-5.47-1.06,1.48.09,2.87.44,3.94,1.06l39.07,22.56c2.78,1.6,2.43,4.41-.78,6.26l-37.51,21.66c-1.55.89-3.47,1.4-5.37,1.51,2.35.14,4.93-.37,6.9-1.51l37.51-21.66c3.21-1.85,3.56-4.65.78-6.26Z" fill="#6ee8fc" stroke-width="0"/><path d="M238.07,157.86c-1.37,0-2.69-.28-3.67-.84l-29.09-16.79c-1.01-.58-1.56-1.4-1.56-2.31,0-1.07.78-2.14,2.14-2.92l27.93-16.12c2.47-1.43,6.24-1.58,8.4-.33l29.09,16.79c1.01.58,1.56,1.4,1.56,2.31,0,1.07-.78,2.14-2.14,2.92l-27.93,16.12c-1.35.78-3.08,1.18-4.73,1.18ZM234.73,156.43c1.97,1.14,5.44.99,7.73-.33l27.93-16.12c1.15-.66,1.81-1.52,1.81-2.35,0-.66-.44-1.28-1.23-1.73l-29.09-16.79c-1.97-1.14-5.44-.99-7.73.33l-27.93,16.12c-1.15.66-1.81,1.52-1.81,2.35,0,.66.44,1.28,1.23,1.73l29.09,16.79Z" fill="#480689" stroke-width="0"/><path d="M235.03,163.23l-39.07-22.56c-2.78-1.6-2.43-4.41.78-6.26l37.51-21.66c1.52-.88,3.42-1.38,5.28-1.5-2.38-.17-5.03.34-7.03,1.5l-37.51,21.66c-3.21,1.85-3.56,4.65-.78,6.26l39.07,22.56c1.46.84,3.49,1.18,5.56,1.05-1.43-.1-2.76-.45-3.8-1.05Z" fill="#d4088c" stroke-width="0"/></g><path d="M284.28,119.85h-19.38l-21.57-12.45c-2.78-1.6-7.63-1.4-10.84.45l-20.79,12h-19.37v13.01h0c-.08,1.09.53,2.13,1.86,2.9l39.07,22.56c2.78,1.6,7.63,1.4,10.84-.45l37.51-21.66c1.67-.96,2.55-2.18,2.64-3.35h.01v-13.01Z" fill="url(#_Áåçûìÿííûé_ãðàäèåíò_377-8)" stroke-width="0"/><path d="M193.57,133.76h0v-13.01h19.37l20.79-12c3.21-1.85,8.06-2.05,10.84-.45l21.57,12.45h18.15v-.9h-19.38l-21.57-12.45c-2.78-1.6-7.63-1.4-10.84.45l-20.79,12h-19.37v13.01h0c-.08,1.09.53,2.13,1.86,2.9l.22.13c-.63-.64-.91-1.38-.86-2.13Z" fill="#d4088c" stroke-width="0"/><path d="M233.28,145.31l-39.07-22.56c-2.78-1.6-2.43-4.41.78-6.26l37.51-21.66c3.21-1.85,8.06-2.05,10.84-.45l39.07,22.56c2.78,1.6,2.43,4.41-.78,6.26l-37.51,21.66c-3.21,1.85-8.06,2.05-10.84.45Z" fill="url(#_Áåçûìÿííûé_ãðàäèåíò_73-2)" stroke-width="0"/><path d="M282.41,116.95l-39.07-22.56c-1.44-.83-3.43-1.17-5.47-1.06,1.48.09,2.87.44,3.94,1.06l39.07,22.56c2.78,1.6,2.43,4.41-.78,6.26l-37.51,21.66c-1.55.89-3.47,1.4-5.37,1.51,2.35.14,4.93-.37,6.9-1.51l37.51-21.66c3.21-1.85,3.56-4.65.78-6.26Z" fill="#6ee8fc" stroke-width="0"/><path d="M238.07,139.94c-1.37,0-2.69-.28-3.67-.84l-29.09-16.79c-1.01-.58-1.56-1.4-1.56-2.31,0-1.07.78-2.14,2.14-2.92l27.93-16.12c2.48-1.43,6.24-1.58,8.4-.33l29.09,16.79c1.01.58,1.56,1.4,1.56,2.31,0,1.07-.78,2.14-2.14,2.92l-27.93,16.12c-1.35.78-3.08,1.18-4.73,1.18ZM234.73,138.52c1.97,1.14,5.44.99,7.73-.33l27.93-16.12c1.15-.66,1.81-1.52,1.81-2.35,0-.66-.44-1.28-1.23-1.73l-29.09-16.79c-1.97-1.14-5.44-.99-7.73.33l-27.93,16.12c-1.15.66-1.81,1.52-1.81,2.35,0,.66.44,1.28,1.23,1.73l29.09,16.79Z" fill="url(#_Áåçûìÿííûé_ãðàäèåíò_88-2)" stroke-width="0"/><path d="M235.03,145.31l-39.07-22.56c-2.78-1.6-2.43-4.41.78-6.26l37.51-21.66c1.52-.88,3.42-1.38,5.28-1.5-2.38-.17-5.03.34-7.03,1.5l-37.51,21.66c-3.21,1.85-3.56,4.65-.78,6.26l39.07,22.56c1.46.84,3.49,1.18,5.56,1.05-1.43-.1-2.76-.45-3.8-1.05Z" fill="#25bfec" stroke-width="0"/><path d="M245.23,152.55l33.05-19.12c.3-.17.55-.64.55-1.05v-1.56c0-.4-.25-.59-.55-.41l-33.05,19.12c-.3.17-.55.64-.55,1.05v1.56c0,.4.25.59.55.41Z" fill="#6de0f6" stroke-width="0"/><path d="M277.56,133.02c.3-.17.55-.64.55-1.05v-1.46l.18-.1c.3-.17.55.01.55.41v1.56c0,.4-.25.87-.55,1.05l-33.05,19.12c-.3.17-.55-.01-.55-.41v-.1l32.87-19.01Z" fill="#267fe5" stroke-width="0"/><g opacity=".4"><path d="M158.47,170.39h-19.38l-21.57-12.45c-2.78-1.6-7.63-1.4-10.84.45l-20.79,12h-19.37v13.01h0c-.08,1.09.53,2.13,1.86,2.9l39.07,22.56c2.78,1.6,7.63,1.4,10.84-.45l37.51-21.66c1.67-.96,2.55-2.18,2.64-3.35h.01v-13.01Z" fill="url(#_Áåçûìÿííûé_ãðàäèåíò_377-9)" stroke-width="0"/><path d="M67.76,184.29h0v-13.01h19.37l20.79-12c3.21-1.85,8.06-2.05,10.84-.45l21.57,12.45h18.15v-.9h-19.38l-21.57-12.45c-2.78-1.6-7.63-1.4-10.84.45l-20.79,12h-19.37v13.01h0c-.08,1.09.53,2.13,1.86,2.9l.22.13c-.63-.64-.91-1.38-.86-2.13Z" fill="#d4088c" stroke-width="0"/><path d="M107.47,195.85l-39.07-22.56c-2.78-1.6-2.43-4.41.78-6.26l37.51-21.66c3.21-1.85,8.06-2.05,10.84-.45l39.07,22.56c2.78,1.6,2.43,4.41-.78,6.26l-37.51,21.66c-3.21,1.85-8.06,2.05-10.84.45Z" fill="url(#_Áåçûìÿííûé_ãðàäèåíò_300-7)" stroke-width="0"/><path d="M156.6,167.49l-39.07-22.56c-1.44-.83-3.43-1.17-5.47-1.06,1.48.09,2.87.44,3.94,1.06l39.07,22.56c2.78,1.6,2.43,4.41-.78,6.26l-37.51,21.66c-1.55.89-3.47,1.4-5.37,1.51,2.35.14,4.93-.37,6.9-1.51l37.51-21.66c3.21-1.85,3.56-4.65.78-6.26Z" fill="#6ee8fc" stroke-width="0"/><path d="M112.26,190.48c-1.37,0-2.69-.28-3.67-.84l-29.09-16.79c-1.01-.58-1.56-1.4-1.56-2.31,0-1.07.78-2.14,2.14-2.92l27.93-16.12c2.48-1.43,6.25-1.58,8.4-.33l29.09,16.79c1.01.58,1.56,1.4,1.56,2.31,0,1.07-.78,2.14-2.14,2.92l-27.93,16.12c-1.35.78-3.08,1.18-4.73,1.18ZM108.92,189.06c1.97,1.14,5.44.99,7.73-.33l27.93-16.12c1.15-.66,1.81-1.52,1.81-2.35,0-.66-.44-1.28-1.23-1.74l-29.09-16.79c-1.97-1.14-5.44-.99-7.73.33l-27.93,16.12c-1.15.66-1.81,1.52-1.81,2.35,0,.66.44,1.28,1.23,1.73l29.09,16.79Z" fill="#480689" stroke-width="0"/><path d="M109.22,195.85l-39.07-22.56c-2.78-1.6-2.43-4.41.78-6.26l37.51-21.66c1.52-.88,3.42-1.38,5.28-1.5-2.38-.17-5.03.34-7.03,1.5l-37.51,21.66c-3.21,1.85-3.56,4.65-.78,6.26l39.07,22.56c1.46.84,3.49,1.18,5.56,1.05-1.43-.1-2.76-.45-3.8-1.05Z" fill="#d4088c" stroke-width="0"/></g><g opacity=".5"><path d="M158.47,152.47h-19.38l-21.57-12.45c-2.78-1.6-7.63-1.4-10.84.45l-20.79,12h-19.37v13.01h0c-.08,1.09.53,2.13,1.86,2.9l39.07,22.56c2.78,1.6,7.63,1.4,10.84-.45l37.51-21.66c1.67-.96,2.55-2.18,2.64-3.35h.01v-13.01Z" fill="url(#_Áåçûìÿííûé_ãðàäèåíò_377-10)" stroke-width="0"/><path d="M67.76,166.38h0v-13.01h19.37l20.79-12c3.21-1.85,8.06-2.05,10.84-.45l21.57,12.45h18.15v-.9h-19.38l-21.57-12.45c-2.78-1.6-7.63-1.4-10.84.45l-20.79,12h-19.37v13.01h0c-.08,1.09.53,2.13,1.86,2.9l.22.13c-.63-.64-.91-1.38-.86-2.13Z" fill="#d4088c" stroke-width="0"/><path d="M107.47,177.93l-39.07-22.56c-2.78-1.6-2.43-4.41.78-6.26l37.51-21.66c3.21-1.85,8.06-2.05,10.84-.45l39.07,22.56c2.78,1.6,2.43,4.41-.78,6.26l-37.51,21.66c-3.21,1.85-8.06,2.05-10.84.45Z" fill="url(#_Áåçûìÿííûé_ãðàäèåíò_300-8)" stroke-width="0"/><path d="M156.6,149.57l-39.07-22.56c-1.44-.83-3.43-1.17-5.47-1.06,1.48.09,2.87.44,3.94,1.06l39.07,22.56c2.78,1.6,2.43,4.41-.78,6.26l-37.51,21.66c-1.55.89-3.47,1.4-5.37,1.51,2.35.14,4.93-.37,6.9-1.51l37.51-21.66c3.21-1.85,3.56-4.65.78-6.26Z" fill="#6ee8fc" stroke-width="0"/><path d="M112.26,172.56c-1.37,0-2.69-.28-3.67-.84l-29.09-16.79c-1.01-.58-1.56-1.4-1.56-2.31,0-1.07.78-2.14,2.14-2.92l27.93-16.12c2.48-1.43,6.25-1.58,8.4-.33l29.09,16.79c1.01.58,1.56,1.4,1.56,2.31,0,1.07-.78,2.14-2.14,2.92l-27.93,16.12c-1.35.78-3.08,1.18-4.73,1.18ZM112.74,133.04c-1.53,0-3.14.37-4.4,1.1l-27.93,16.12c-1.15.66-1.81,1.52-1.81,2.35,0,.66.44,1.28,1.23,1.73l29.09,16.79c1.97,1.14,5.44.99,7.73-.33l27.93-16.12c1.15-.66,1.81-1.52,1.81-2.35,0-.66-.44-1.28-1.23-1.73l-29.09-16.79c-.89-.51-2.08-.77-3.34-.77Z" fill="#480689" stroke-width="0"/><path d="M109.22,177.93l-39.07-22.56c-2.78-1.6-2.43-4.41.78-6.26l37.51-21.66c1.52-.88,3.42-1.38,5.28-1.5-2.38-.17-5.03.34-7.03,1.5l-37.51,21.66c-3.21,1.85-3.56,4.65-.78,6.26l39.07,22.56c1.46.84,3.49,1.18,5.56,1.05-1.43-.1-2.76-.45-3.8-1.05Z" fill="#d4088c" stroke-width="0"/></g><g opacity=".7"><path d="M158.47,134.56h-19.38l-21.57-12.45c-2.78-1.6-7.63-1.4-10.84.45l-20.79,12h-19.37v13.01h0c-.08,1.09.53,2.13,1.86,2.9l39.07,22.56c2.78,1.6,7.63,1.4,10.84-.45l37.51-21.66c1.67-.96,2.55-2.18,2.64-3.35h.01v-13.01Z" fill="url(#_Áåçûìÿííûé_ãðàäèåíò_377-11)" stroke-width="0"/><path d="M67.76,148.46h0v-13.01h19.37l20.79-12c3.21-1.85,8.06-2.05,10.84-.45l21.57,12.45h18.15v-.9h-19.38l-21.57-12.45c-2.78-1.6-7.63-1.4-10.84.45l-20.79,12h-19.37v13.01h0c-.08,1.09.53,2.13,1.86,2.9l.22.13c-.63-.64-.91-1.38-.86-2.13Z" fill="#d4088c" stroke-width="0"/><path d="M107.47,160.02l-39.07-22.56c-2.78-1.6-2.43-4.41.78-6.26l37.51-21.66c3.21-1.85,8.06-2.05,10.84-.45l39.07,22.56c2.78,1.6,2.43,4.41-.78,6.26l-37.51,21.66c-3.21,1.85-8.06,2.05-10.84.45Z" fill="url(#_Áåçûìÿííûé_ãðàäèåíò_300-9)" stroke-width="0"/><path d="M156.6,131.65l-39.07-22.56c-1.44-.83-3.43-1.17-5.47-1.06,1.48.09,2.87.44,3.94,1.06l39.07,22.56c2.78,1.6,2.43,4.41-.78,6.26l-37.51,21.66c-1.55.89-3.47,1.4-5.37,1.51,2.35.14,4.93-.37,6.9-1.51l37.51-21.66c3.21-1.85,3.56-4.65.78-6.26Z" fill="#6ee8fc" stroke-width="0"/><path d="M112.26,154.64c-1.37,0-2.69-.28-3.67-.84l-29.09-16.79c-1.01-.58-1.56-1.4-1.56-2.31,0-1.07.78-2.14,2.14-2.92l27.93-16.12c2.48-1.43,6.24-1.58,8.4-.33l29.09,16.79c1.01.58,1.56,1.4,1.56,2.31,0,1.07-.78,2.14-2.14,2.92l-27.93,16.12c-1.35.78-3.08,1.18-4.73,1.18ZM112.74,115.13c-1.53,0-3.14.37-4.4,1.1l-27.93,16.12c-1.15.66-1.81,1.52-1.81,2.35,0,.66.44,1.28,1.23,1.73l29.09,16.79c1.97,1.14,5.44.99,7.73-.33l27.93-16.12c1.15-.66,1.81-1.52,1.81-2.35,0-.66-.44-1.28-1.23-1.73l-29.09-16.79c-.89-.51-2.08-.76-3.34-.76Z" fill="#480689" stroke-width="0"/><path d="M109.22,160.02l-39.07-22.56c-2.78-1.6-2.43-4.41.78-6.26l37.51-21.66c1.52-.88,3.42-1.38,5.28-1.5-2.38-.17-5.03.34-7.03,1.5l-37.51,21.66c-3.21,1.85-3.56,4.65-.78,6.26l39.07,22.56c1.46.84,3.49,1.18,5.56,1.05-1.43-.1-2.76-.45-3.8-1.05Z" fill="#d4088c" stroke-width="0"/></g><path d="M158.47,116.64h-19.38l-21.57-12.45c-2.78-1.6-7.63-1.4-10.84.45l-20.79,12h-19.37v13.01h0c-.08,1.09.53,2.13,1.86,2.9l39.07,22.56c2.78,1.6,7.63,1.4,10.84-.45l37.51-21.66c1.67-.96,2.55-2.18,2.64-3.35h.01v-13.01Z" fill="url(#_Áåçûìÿííûé_ãðàäèåíò_377-12)" stroke-width="0"/><path d="M67.76,130.54h0v-13.01h19.37l20.79-12c3.21-1.85,8.06-2.05,10.84-.45l21.57,12.45h18.15v-.9h-19.38l-21.57-12.45c-2.78-1.6-7.63-1.4-10.84.45l-20.79,12h-19.37v13.01h0c-.08,1.09.53,2.13,1.86,2.9l.22.13c-.63-.64-.91-1.38-.86-2.13Z" fill="#d4088c" stroke-width="0"/><path d="M107.47,142.1l-39.07-22.56c-2.78-1.6-2.43-4.41.78-6.26l37.51-21.66c3.21-1.85,8.06-2.05,10.84-.45l39.07,22.56c2.78,1.6,2.43,4.41-.78,6.26l-37.51,21.66c-3.21,1.85-8.06,2.05-10.84.45Z" fill="url(#_Áåçûìÿííûé_ãðàäèåíò_73-3)" stroke-width="0"/><path d="M156.6,113.74l-39.07-22.56c-1.44-.83-3.43-1.17-5.47-1.06,1.48.09,2.87.44,3.94,1.06l39.07,22.56c2.78,1.6,2.43,4.41-.78,6.26l-37.51,21.66c-1.55.89-3.47,1.4-5.37,1.51,2.35.14,4.93-.37,6.9-1.51l37.51-21.66c3.21-1.85,3.56-4.65.78-6.26Z" fill="#6ee8fc" stroke-width="0"/><path d="M112.26,136.73c-1.37,0-2.69-.28-3.67-.84l-29.09-16.79c-1.01-.58-1.56-1.4-1.56-2.31,0-1.07.78-2.14,2.14-2.92l27.93-16.12c2.48-1.43,6.25-1.58,8.4-.33l29.09,16.79c1.01.58,1.56,1.4,1.56,2.31,0,1.07-.78,2.14-2.14,2.92l-27.93,16.12c-1.35.78-3.08,1.18-4.73,1.18ZM108.92,135.3c1.97,1.14,5.44.99,7.73-.33l27.93-16.12c1.15-.66,1.81-1.52,1.81-2.35,0-.66-.44-1.28-1.23-1.73l-29.09-16.79c-1.97-1.14-5.44-.99-7.73.33l-27.93,16.12c-1.15.66-1.81,1.52-1.81,2.35,0,.66.44,1.28,1.23,1.73l29.09,16.79Z" fill="url(#_Áåçûìÿííûé_ãðàäèåíò_88-3)" stroke-width="0"/><path d="M109.22,142.1l-39.07-22.56c-2.78-1.6-2.43-4.41.78-6.26l37.51-21.66c1.52-.88,3.42-1.38,5.28-1.5-2.38-.17-5.03.34-7.03,1.5l-37.51,21.66c-3.21,1.85-3.56,4.65-.78,6.26l39.07,22.56c1.46.84,3.49,1.18,5.56,1.05-1.43-.1-2.76-.45-3.8-1.05Z" fill="#25bfec" stroke-width="0"/><path d="M105.74,149.34l-33.05-19.12c-.3-.17-.55-.64-.55-1.05v-1.56c0-.4.25-.59.55-.41l33.05,19.12c.3.17.55.64.55,1.05v1.56c0,.4-.25.59-.55.41Z" fill="#6de0f6" stroke-width="0"/><path d="M73.41,129.81c-.3-.17-.55-.64-.55-1.05v-1.46l-.18-.1c-.3-.17-.55.01-.55.41v1.56c0,.4.25.87.55,1.05l33.05,19.12c.3.17.55-.01.55-.41v-.1l-32.87-19.01Z" fill="#267fe5" stroke-width="0"/><g opacity=".4"><path d="M221.19,209.61h-19.38l-21.57-12.45c-2.78-1.6-7.63-1.4-10.84.45l-20.79,12h-19.37v13.01h0c-.08,1.09.53,2.13,1.86,2.9l39.07,22.56c2.78,1.6,7.63,1.4,10.84-.45l37.51-21.66c1.67-.96,2.55-2.18,2.64-3.35h.01v-13.01Z" fill="url(#_Áåçûìÿííûé_ãðàäèåíò_377-13)" stroke-width="0"/><path d="M130.48,223.52h0v-13.01h19.37l20.79-12c3.21-1.85,8.06-2.05,10.84-.45l21.57,12.45h18.15v-.9h-19.38l-21.57-12.45c-2.78-1.6-7.63-1.4-10.84.45l-20.79,12h-19.37v13.01h0c-.08,1.09.53,2.13,1.86,2.9l.22.13c-.63-.64-.91-1.38-.86-2.13Z" fill="#d4088c" stroke-width="0"/><path d="M170.19,235.07l-39.07-22.56c-2.78-1.6-2.43-4.41.78-6.26l37.51-21.66c3.21-1.85,8.06-2.05,10.84-.45l39.07,22.56c2.78,1.6,2.43,4.41-.78,6.26l-37.51,21.66c-3.21,1.85-8.06,2.05-10.84.45Z" fill="url(#_Áåçûìÿííûé_ãðàäèåíò_300-10)" stroke-width="0"/><path d="M219.32,206.71l-39.07-22.56c-1.44-.83-3.43-1.17-5.47-1.06,1.48.09,2.87.44,3.94,1.06l39.07,22.56c2.78,1.6,2.43,4.41-.78,6.26l-37.51,21.66c-1.55.89-3.47,1.4-5.37,1.51,2.35.14,4.93-.37,6.9-1.51l37.51-21.66c3.21-1.85,3.56-4.65.78-6.26Z" fill="#6ee8fc" stroke-width="0"/><path d="M174.98,229.7c-1.37,0-2.69-.28-3.67-.84l-29.09-16.79c-1.01-.58-1.56-1.4-1.56-2.31,0-1.07.78-2.14,2.14-2.92l27.93-16.12c2.47-1.43,6.24-1.58,8.4-.33l29.09,16.79c1.01.58,1.56,1.4,1.56,2.31,0,1.07-.78,2.14-2.14,2.92l-27.93,16.12c-1.35.78-3.08,1.18-4.73,1.18ZM171.64,228.28c1.97,1.14,5.44.99,7.73-.33l27.93-16.12c1.15-.66,1.81-1.52,1.81-2.35,0-.66-.44-1.28-1.23-1.73l-29.09-16.79c-1.97-1.14-5.44-.99-7.73.33l-27.93,16.12c-1.15.66-1.81,1.52-1.81,2.35,0,.66.44,1.28,1.23,1.73l29.09,16.79Z" fill="#480689" stroke-width="0"/><path d="M171.94,235.07l-39.07-22.56c-2.78-1.6-2.43-4.41.78-6.26l37.51-21.66c1.52-.88,3.42-1.38,5.28-1.5-2.38-.17-5.03.34-7.03,1.5l-37.51,21.66c-3.21,1.85-3.56,4.65-.78,6.26l39.07,22.56c1.46.84,3.49,1.18,5.56,1.05-1.43-.1-2.76-.45-3.8-1.05Z" fill="#d4088c" stroke-width="0"/></g><g opacity=".5"><path d="M221.19,191.69h-19.38l-21.57-12.45c-2.78-1.6-7.63-1.4-10.84.45l-20.79,12h-19.37v13.01h0c-.08,1.09.53,2.13,1.86,2.9l39.07,22.56c2.78,1.6,7.63,1.4,10.84-.45l37.51-21.66c1.67-.96,2.55-2.18,2.64-3.35h.01v-13.01Z" fill="url(#_Áåçûìÿííûé_ãðàäèåíò_377-14)" stroke-width="0"/><path d="M130.48,205.6h0v-13.01h19.37l20.79-12c3.21-1.85,8.06-2.05,10.84-.45l21.57,12.45h18.15v-.9h-19.38l-21.57-12.45c-2.78-1.6-7.63-1.4-10.84.45l-20.79,12h-19.37v13.01h0c-.08,1.09.53,2.13,1.86,2.9l.22.13c-.63-.64-.91-1.38-.86-2.13Z" fill="#d4088c" stroke-width="0"/><path d="M170.19,217.15l-39.07-22.56c-2.78-1.6-2.43-4.41.78-6.26l37.51-21.66c3.21-1.85,8.06-2.05,10.84-.45l39.07,22.56c2.78,1.6,2.43,4.41-.78,6.26l-37.51,21.66c-3.21,1.85-8.06,2.05-10.84.45Z" fill="url(#_Áåçûìÿííûé_ãðàäèåíò_300-11)" stroke-width="0"/><path d="M219.32,188.79l-39.07-22.56c-1.44-.83-3.43-1.17-5.47-1.06,1.48.09,2.87.44,3.94,1.06l39.07,22.56c2.78,1.6,2.43,4.41-.78,6.26l-37.51,21.66c-1.55.89-3.47,1.4-5.37,1.51,2.35.14,4.93-.37,6.9-1.51l37.51-21.66c3.21-1.85,3.56-4.65.78-6.26Z" fill="#6ee8fc" stroke-width="0"/><path d="M174.98,211.78c-1.37,0-2.69-.28-3.67-.84l-29.09-16.79c-1.01-.58-1.56-1.4-1.56-2.31,0-1.07.78-2.14,2.14-2.92l27.93-16.12c2.48-1.43,6.25-1.58,8.4-.33l29.09,16.79c1.01.58,1.56,1.4,1.56,2.31,0,1.07-.78,2.14-2.14,2.92l-27.93,16.12c-1.35.78-3.08,1.18-4.73,1.18ZM175.46,172.26c-1.53,0-3.14.37-4.4,1.1l-27.93,16.12c-1.15.66-1.81,1.52-1.81,2.35,0,.66.44,1.28,1.23,1.73l29.09,16.79c1.97,1.14,5.44.99,7.73-.33l27.93-16.12c1.15-.66,1.81-1.52,1.81-2.35,0-.66-.44-1.28-1.23-1.73l-29.09-16.79c-.89-.51-2.08-.76-3.34-.76Z" fill="#480689" stroke-width="0"/><path d="M171.94,217.15l-39.07-22.56c-2.78-1.6-2.43-4.41.78-6.26l37.51-21.66c1.52-.88,3.42-1.38,5.28-1.5-2.38-.17-5.03.34-7.03,1.5l-37.51,21.66c-3.21,1.85-3.56,4.65-.78,6.26l39.07,22.56c1.46.84,3.49,1.18,5.56,1.05-1.43-.1-2.76-.45-3.8-1.05Z" fill="#d4088c" stroke-width="0"/></g><g opacity=".7"><path d="M221.19,173.78h-19.38l-21.57-12.45c-2.78-1.6-7.63-1.4-10.84.45l-20.79,12h-19.37v13.01h0c-.08,1.09.53,2.13,1.86,2.9l39.07,22.56c2.78,1.6,7.63,1.4,10.84-.45l37.51-21.66c1.67-.96,2.55-2.18,2.64-3.35h.01v-13.01Z" fill="url(#_Áåçûìÿííûé_ãðàäèåíò_377-15)" stroke-width="0"/><path d="M130.48,187.68h0v-13.01h19.37l20.79-12c3.21-1.85,8.06-2.05,10.84-.45l21.57,12.45h18.15v-.9h-19.38l-21.57-12.45c-2.78-1.6-7.63-1.4-10.84.45l-20.79,12h-19.37v13.01h0c-.08,1.09.53,2.13,1.86,2.9l.22.13c-.63-.64-.91-1.38-.86-2.13Z" fill="#d4088c" stroke-width="0"/><path d="M170.19,199.24l-39.07-22.56c-2.78-1.6-2.43-4.41.78-6.26l37.51-21.66c3.21-1.85,8.06-2.05,10.84-.45l39.07,22.56c2.78,1.6,2.43,4.41-.78,6.26l-37.51,21.66c-3.21,1.85-8.06,2.05-10.84.45Z" fill="url(#_Áåçûìÿííûé_ãðàäèåíò_300-12)" stroke-width="0"/><path d="M219.32,170.87l-39.07-22.56c-1.44-.83-3.43-1.17-5.47-1.06,1.48.09,2.87.44,3.94,1.06l39.07,22.56c2.78,1.6,2.43,4.41-.78,6.26l-37.51,21.66c-1.55.89-3.47,1.4-5.37,1.51,2.35.14,4.93-.37,6.9-1.51l37.51-21.66c3.21-1.85,3.56-4.65.78-6.26Z" fill="#6ee8fc" stroke-width="0"/><path d="M174.98,193.87c-1.37,0-2.69-.28-3.67-.84l-29.09-16.79c-1.01-.58-1.56-1.4-1.56-2.31,0-1.07.78-2.14,2.14-2.92l27.93-16.12c2.47-1.43,6.24-1.58,8.4-.33l29.09,16.79c1.01.58,1.56,1.4,1.56,2.31,0,1.07-.78,2.14-2.14,2.92l-27.93,16.12c-1.35.78-3.08,1.18-4.73,1.18ZM175.46,154.35c-1.53,0-3.14.37-4.4,1.1l-27.93,16.12c-1.15.66-1.81,1.52-1.81,2.35,0,.66.44,1.28,1.23,1.73l29.09,16.79c1.97,1.14,5.44.99,7.73-.33l27.93-16.12c1.15-.66,1.81-1.52,1.81-2.35,0-.66-.44-1.28-1.23-1.73l-29.09-16.79c-.89-.51-2.08-.76-3.34-.76Z" fill="#480689" stroke-width="0"/><path d="M171.94,199.24l-39.07-22.56c-2.78-1.6-2.43-4.41.78-6.26l37.51-21.66c1.52-.88,3.42-1.38,5.28-1.5-2.38-.17-5.03.34-7.03,1.5l-37.51,21.66c-3.21,1.85-3.56,4.65-.78,6.26l39.07,22.56c1.46.84,3.49,1.18,5.56,1.05-1.43-.1-2.76-.45-3.8-1.05Z" fill="#d4088c" stroke-width="0"/></g><path d="M221.19,155.86h-19.38l-21.57-12.45c-2.78-1.6-7.63-1.4-10.84.45l-20.79,12h-19.37v13.01h0c-.08,1.09.53,2.13,1.86,2.9l39.07,22.56c2.78,1.6,7.63,1.4,10.84-.45l37.51-21.66c1.67-.96,2.55-2.18,2.64-3.35h.01v-13.01Z" fill="url(#_Áåçûìÿííûé_ãðàäèåíò_377-16)" stroke-width="0"/><path d="M130.48,169.76h0v-13.01h19.37l20.79-12c3.21-1.85,8.06-2.05,10.84-.45l21.57,12.45h18.15v-.9h-19.38l-21.57-12.45c-2.78-1.6-7.63-1.4-10.84.45l-20.79,12h-19.37v13.01h0c-.08,1.09.53,2.13,1.86,2.9l.22.13c-.63-.64-.91-1.38-.86-2.13Z" fill="#d4088c" stroke-width="0"/><path d="M170.19,181.32l-39.07-22.56c-2.78-1.6-2.43-4.41.78-6.26l37.51-21.66c3.21-1.85,8.06-2.05,10.84-.45l39.07,22.56c2.78,1.6,2.43,4.41-.78,6.26l-37.51,21.66c-3.21,1.85-8.06,2.05-10.84.45Z" fill="url(#_Áåçûìÿííûé_ãðàäèåíò_73-4)" stroke-width="0"/><path d="M219.32,152.96l-39.07-22.56c-1.44-.83-3.43-1.17-5.47-1.06,1.48.09,2.87.44,3.94,1.06l39.07,22.56c2.78,1.6,2.43,4.41-.78,6.26l-37.51,21.66c-1.55.89-3.47,1.4-5.37,1.51,2.35.14,4.93-.37,6.9-1.51l37.51-21.66c3.21-1.85,3.56-4.65.78-6.26Z" fill="#6ee8fc" stroke-width="0"/><path d="M174.98,175.82c-1.35,0-2.64-.27-3.6-.83l-29.09-16.79c-.96-.56-1.5-1.34-1.5-2.2,0-1.02.76-2.05,2.08-2.81l27.93-16.12c2.44-1.41,6.15-1.56,8.27-.33l29.09,16.79c.97.56,1.5,1.34,1.5,2.2,0,1.02-.76,2.05-2.08,2.81l-27.93,16.12c-1.33.77-3.04,1.16-4.67,1.16ZM175.46,136.3c-1.55,0-3.19.38-4.46,1.12l-27.93,16.12c-1.19.69-1.87,1.58-1.87,2.46,0,.71.46,1.37,1.3,1.85l29.09,16.79c2.01,1.16,5.54,1.01,7.87-.33l27.93-16.12c1.19-.69,1.87-1.58,1.87-2.46,0-.71-.46-1.37-1.3-1.85l-29.09-16.79c-.91-.52-2.13-.78-3.4-.78Z" fill="url(#_Áåçûìÿííûé_ãðàäèåíò_88-4)" stroke-width="0"/><path d="M171.94,181.32l-39.07-22.56c-2.78-1.6-2.43-4.41.78-6.26l37.51-21.66c1.52-.88,3.42-1.38,5.28-1.5-2.38-.17-5.03.34-7.03,1.5l-37.51,21.66c-3.21,1.85-3.56,4.65-.78,6.26l39.07,22.56c1.46.84,3.49,1.18,5.56,1.05-1.43-.1-2.76-.45-3.8-1.05Z" fill="#25bfec" stroke-width="0"/><path d="M182.14,188.56l33.05-19.12c.3-.17.55-.64.55-1.05v-1.56c0-.4-.24-.59-.55-.41l-33.05,19.12c-.3.17-.55.64-.55,1.05v1.56c0,.4.24.59.55.41Z" fill="#6de0f6" stroke-width="0"/><path d="M214.47,169.03c.3-.17.55-.64.55-1.05v-1.46l.18-.1c.3-.17.55.01.55.41v1.56c0,.4-.25.87-.55,1.05l-33.05,19.12c-.3.17-.55-.01-.55-.41v-.1l32.87-19.01Z" fill="#267fe5" stroke-width="0"/><path d="M168.54,188.56l-33.05-19.12c-.3-.17-.55-.64-.55-1.05v-1.56c0-.4.25-.59.55-.41l33.05,19.12c.3.17.55.64.55,1.05v1.56c0,.4-.25.59-.55.41Z" fill="#6de0f6" stroke-width="0"/><path d="M136.21,169.03c-.3-.17-.55-.64-.55-1.05v-1.46l-.18-.1c-.3-.17-.55.01-.55.41v1.56c0,.4.25.87.55,1.05l33.05,19.12c.3.17.55-.01.55-.41v-.1l-32.87-19.01Z" fill="#267fe5" stroke-width="0"/><path d="M170.56,106.09l-39.07-22.56c-2.78-1.6-2.43-4.41.78-6.26l37.51-21.66c3.21-1.85,8.06-2.05,10.84-.45l39.07,22.56c2.78,1.6,2.43,4.41-.78,6.26l-37.51,21.66c-3.21,1.85-8.06,2.05-10.84.45Z" fill="url(#_Áåçûìÿííûé_ãðàäèåíò_300-13)" stroke-width="0"/><path d="M172.2,97.79l-26.33-15.2c-1.87-1.08-1.64-2.97.52-4.22l25.28-14.59c2.16-1.25,5.43-1.38,7.3-.3l26.33,15.2c1.87,1.08,1.64,2.97-.52,4.22l-25.28,14.59c-2.16,1.25-5.43,1.38-7.3.3Z" fill="url(#_Áåçûìÿííûé_ãðàäèåíò_73-5)" stroke-width="0"/><path d="M233.28,145.31l-39.07-22.56c-2.78-1.6-2.43-4.41.78-6.26l37.51-21.66c3.21-1.85,8.06-2.05,10.84-.45l39.07,22.56c2.78,1.6,2.43,4.41-.78,6.26l-37.51,21.66c-3.21,1.85-8.06,2.05-10.84.45Z" fill="url(#_Áåçûìÿííûé_ãðàäèåíò_300-14)" stroke-width="0"/><path d="M107.47,142.1l-39.07-22.56c-2.78-1.6-2.43-4.41.78-6.26l37.51-21.66c3.21-1.85,8.06-2.05,10.84-.45l39.07,22.56c2.78,1.6,2.43,4.41-.78,6.26l-37.51,21.66c-3.21,1.85-8.06,2.05-10.84.45Z" fill="url(#_Áåçûìÿííûé_ãðàäèåíò_300-15)" stroke-width="0"/><path d="M170.19,181.32l-39.07-22.56c-2.78-1.6-2.43-4.41.78-6.26l37.51-21.66c3.21-1.85,8.06-2.05,10.84-.45l39.07,22.56c2.78,1.6,2.43,4.41-.78,6.26l-37.51,21.66c-3.21,1.85-8.06,2.05-10.84.45Z" fill="url(#_Áåçûìÿííûé_ãðàäèåíò_73-6)" stroke-width="0"/><path d="M172.23,171l-23.24-13.42c-1.65-.95-1.44-2.62.46-3.72l22.31-12.88c1.91-1.1,4.79-1.22,6.45-.27l23.24,13.42c1.65.95,1.44,2.62-.46,3.72l-22.31,12.88c-1.91,1.1-4.79,1.22-6.45.27Z" fill="url(#_Áåçûìÿííûé_ãðàäèåíò_42)" stroke-width="0"/><polygon points="238.37 103.75 236.51 102.68 238.37 101.61 240.22 102.68 238.37 103.75" fill="#6de0f6" stroke-width="0"/><polygon points="242.08 105.89 240.22 104.82 242.08 103.75 243.93 104.82 242.08 105.89" fill="#6de0f6" opacity=".1" stroke-width="0"/><polygon points="245.79 108.04 243.93 106.97 245.79 105.89 247.64 106.97 245.79 108.04" fill="#6de0f6" opacity=".4" stroke-width="0"/><polygon points="249.5 110.18 247.64 109.11 249.5 108.04 251.35 109.11 249.5 110.18" fill="#6de0f6" stroke-width="0"/><polygon points="253.21 112.32 251.35 111.25 253.21 110.18 255.06 111.25 253.21 112.32" fill="#6de0f6" opacity=".4" stroke-width="0"/><polygon points="256.92 114.46 255.06 113.39 256.92 112.32 258.77 113.39 256.92 114.46" fill="#6de0f6" stroke-width="0"/><polygon points="260.63 116.6 258.77 115.53 260.63 114.46 262.48 115.53 260.63 116.6" fill="#6de0f6" stroke-width="0"/><polygon points="264.34 118.75 262.48 117.67 264.34 116.6 266.19 117.67 264.34 118.75" fill="#6de0f6" stroke-width="0"/><polygon points="268.05 120.89 266.19 119.82 268.05 118.75 269.9 119.82 268.05 120.89" fill="#6de0f6" opacity=".1" stroke-width="0"/><polygon points="234.64 105.9 232.79 104.83 234.64 103.76 236.5 104.83 234.64 105.9" fill="#6de0f6" stroke-width="0"/><polygon points="238.35 108.05 236.5 106.97 238.35 105.9 240.21 106.97 238.35 108.05" fill="#6de0f6" stroke-width="0"/><polygon points="242.06 110.19 240.21 109.12 242.06 108.05 243.92 109.12 242.06 110.19" fill="#6de0f6" stroke-width="0"/><polygon points="245.77 112.33 243.92 111.26 245.77 110.19 247.63 111.26 245.77 112.33" fill="#6de0f6" stroke-width="0"/><polygon points="249.48 114.47 247.63 113.4 249.48 112.33 251.34 113.4 249.48 114.47" fill="#6de0f6" stroke-width="0"/><polygon points="253.19 116.61 251.34 115.54 253.19 114.47 255.05 115.54 253.19 116.61" fill="#6de0f6" stroke-width="0"/><polygon points="256.9 118.75 255.05 117.68 256.9 116.61 258.76 117.68 256.9 118.75" fill="#6de0f6" stroke-width="0"/><polygon points="260.61 120.9 258.76 119.83 260.61 118.75 262.47 119.83 260.61 120.9" fill="#6de0f6" stroke-width="0"/><polygon points="264.32 123.04 262.47 121.97 264.32 120.9 266.18 121.97 264.32 123.04" fill="#6de0f6" stroke-width="0"/><polygon points="230.92 108.05 229.06 106.98 230.92 105.91 232.77 106.98 230.92 108.05" fill="#6de0f6" stroke-width="0"/><polygon points="234.63 110.2 232.77 109.12 234.63 108.05 236.48 109.12 234.63 110.2" fill="#6de0f6" stroke-width="0"/><polygon points="238.34 112.34 236.48 111.27 238.34 110.2 240.19 111.27 238.34 112.34" fill="#6de0f6" stroke-width="0"/><polygon points="242.05 114.48 240.19 113.41 242.05 112.34 243.9 113.41 242.05 114.48" fill="#6de0f6" opacity=".1" stroke-width="0"/><polygon points="245.76 116.62 243.9 115.55 245.76 114.48 247.61 115.55 245.76 116.62" fill="#6de0f6" opacity=".4" stroke-width="0"/><polygon points="249.47 118.76 247.61 117.69 249.47 116.62 251.32 117.69 249.47 118.76" fill="#6de0f6" opacity=".4" stroke-width="0"/><polygon points="253.18 120.9 251.32 119.83 253.18 118.76 255.03 119.83 253.18 120.9" fill="#6de0f6" stroke-width="0"/><polygon points="256.89 123.05 255.03 121.98 256.89 120.9 258.74 121.98 256.89 123.05" fill="#6de0f6" stroke-width="0"/><polygon points="260.6 125.19 258.74 124.12 260.6 123.05 262.45 124.12 260.6 125.19" fill="#6de0f6" stroke-width="0"/><polygon points="227.19 110.2 225.34 109.13 227.19 108.06 229.05 109.13 227.19 110.2" fill="#6de0f6" opacity=".4" stroke-width="0"/><polygon points="230.9 112.35 229.05 111.28 230.9 110.2 232.76 111.28 230.9 112.35" fill="#6de0f6" opacity=".4" stroke-width="0"/><polygon points="234.61 114.49 232.76 113.42 234.61 112.35 236.47 113.42 234.61 114.49" fill="#6de0f6" opacity=".1" stroke-width="0"/><polygon points="238.32 116.63 236.47 115.56 238.32 114.49 240.18 115.56 238.32 116.63" fill="#6de0f6" stroke-width="0"/><polygon points="242.03 118.77 240.18 117.7 242.03 116.63 243.89 117.7 242.03 118.77" fill="#6de0f6" stroke-width="0"/><polygon points="245.74 120.91 243.89 119.84 245.74 118.77 247.6 119.84 245.74 120.91" fill="#6de0f6" stroke-width="0"/><polygon points="249.45 123.06 247.6 121.98 249.45 120.91 251.31 121.98 249.45 123.06" fill="#6de0f6" opacity=".4" stroke-width="0"/><polygon points="253.16 125.2 251.31 124.13 253.16 123.06 255.02 124.13 253.16 125.2" fill="#6de0f6" stroke-width="0"/><polygon points="256.87 127.34 255.02 126.27 256.87 125.2 258.73 126.27 256.87 127.34" fill="#6de0f6" stroke-width="0"/><polygon points="223.47 112.35 221.61 111.28 223.47 110.21 225.32 111.28 223.47 112.35" fill="#6de0f6" stroke-width="0"/><polygon points="227.18 114.5 225.32 113.43 227.18 112.35 229.03 113.43 227.18 114.5" fill="#6de0f6" stroke-width="0"/><polygon points="230.89 116.64 229.03 115.57 230.89 114.5 232.74 115.57 230.89 116.64" fill="#6de0f6" stroke-width="0"/><polygon points="234.6 118.78 232.74 117.71 234.6 116.64 236.45 117.71 234.6 118.78" fill="#6de0f6" stroke-width="0"/><polygon points="238.31 120.92 236.45 119.85 238.31 118.78 240.16 119.85 238.31 120.92" fill="#6de0f6" stroke-width="0"/><polygon points="242.02 123.06 240.16 121.99 242.02 120.92 243.87 121.99 242.02 123.06" fill="#6de0f6" stroke-width="0"/><polygon points="245.73 125.21 243.87 124.14 245.73 123.06 247.58 124.14 245.73 125.21" fill="#6de0f6" stroke-width="0"/><polygon points="249.44 127.35 247.58 126.28 249.44 125.21 251.29 126.28 249.44 127.35" fill="#6de0f6" stroke-width="0"/><polygon points="253.15 129.49 251.29 128.42 253.15 127.35 255 128.42 253.15 129.49" fill="#6de0f6" stroke-width="0"/><polygon points="219.74 114.51 217.89 113.43 219.74 112.36 221.6 113.43 219.74 114.51" fill="#6de0f6" stroke-width="0"/><polygon points="223.45 116.65 221.6 115.58 223.45 114.51 225.31 115.58 223.45 116.65" fill="#6de0f6" stroke-width="0"/><polygon points="227.16 118.79 225.31 117.72 227.16 116.65 229.02 117.72 227.16 118.79" fill="#6de0f6" opacity=".4" stroke-width="0"/><polygon points="230.87 120.93 229.02 119.86 230.87 118.79 232.73 119.86 230.87 120.93" fill="#6de0f6" stroke-width="0"/><polygon points="234.58 123.07 232.73 122 234.58 120.93 236.44 122 234.58 123.07" fill="#6de0f6" opacity=".1" stroke-width="0"/><polygon points="238.29 125.21 236.44 124.14 238.29 123.07 240.15 124.14 238.29 125.21" fill="#6de0f6" stroke-width="0"/><polygon points="242 127.36 240.15 126.29 242 125.21 243.86 126.29 242 127.36" fill="#6de0f6" stroke-width="0"/><polygon points="245.71 129.5 243.86 128.43 245.71 127.36 247.57 128.43 245.71 129.5" fill="#6de0f6" stroke-width="0"/><polygon points="249.42 131.64 247.57 130.57 249.42 129.5 251.28 130.57 249.42 131.64" fill="#6de0f6" stroke-width="0"/><polygon points="216.02 116.66 214.16 115.59 216.02 114.51 217.87 115.59 216.02 116.66" fill="#6de0f6" stroke-width="0"/><polygon points="219.73 118.8 217.87 117.73 219.73 116.66 221.58 117.73 219.73 118.8" fill="#6de0f6" stroke-width="0"/><polygon points="223.44 120.94 221.58 119.87 223.44 118.8 225.29 119.87 223.44 120.94" fill="#6de0f6" opacity=".4" stroke-width="0"/><polygon points="227.15 123.08 225.29 122.01 227.15 120.94 229 122.01 227.15 123.08" fill="#6de0f6" stroke-width="0"/><polygon points="230.86 125.22 229 124.15 230.86 123.08 232.71 124.15 230.86 125.22" fill="#6de0f6" stroke-width="0"/><polygon points="234.57 127.37 232.71 126.29 234.57 125.22 236.42 126.29 234.57 127.37" fill="#6de0f6" opacity=".1" stroke-width="0"/><polygon points="238.28 129.51 236.42 128.44 238.28 127.37 240.13 128.44 238.28 129.51" fill="#6de0f6" opacity=".4" stroke-width="0"/><polygon points="241.99 131.65 240.13 130.58 241.99 129.51 243.84 130.58 241.99 131.65" fill="#6de0f6" stroke-width="0"/><polygon points="245.7 133.79 243.84 132.72 245.7 131.65 247.55 132.72 245.7 133.79" fill="#6de0f6" opacity=".1" stroke-width="0"/><polygon points="212.29 118.81 210.44 117.74 212.29 116.66 214.15 117.74 212.29 118.81" fill="#6de0f6" stroke-width="0"/><polygon points="216 120.95 214.15 119.88 216 118.81 217.86 119.88 216 120.95" fill="#6de0f6" opacity=".4" stroke-width="0"/><polygon points="219.71 123.09 217.86 122.02 219.71 120.95 221.57 122.02 219.71 123.09" fill="#6de0f6" stroke-width="0"/><polygon points="223.42 125.23 221.57 124.16 223.42 123.09 225.28 124.16 223.42 125.23" fill="#6de0f6" stroke-width="0"/><polygon points="227.13 127.37 225.28 126.3 227.13 125.23 228.99 126.3 227.13 127.37" fill="#6de0f6" stroke-width="0"/><polygon points="230.84 129.52 228.99 128.44 230.84 127.37 232.7 128.44 230.84 129.52" fill="#6de0f6" stroke-width="0"/><polygon points="234.55 131.66 232.7 130.59 234.55 129.52 236.41 130.59 234.55 131.66" fill="#6de0f6" stroke-width="0"/><polygon points="238.26 133.8 236.41 132.73 238.26 131.66 240.12 132.73 238.26 133.8" fill="#6de0f6" opacity=".4" stroke-width="0"/><polygon points="241.97 135.94 240.12 134.87 241.97 133.8 243.83 134.87 241.97 135.94" fill="#6de0f6" stroke-width="0"/><polygon points="208.57 120.96 206.71 119.89 208.57 118.82 210.42 119.89 208.57 120.96" fill="#6de0f6" stroke-width="0"/><polygon points="212.28 123.1 210.42 122.03 212.28 120.96 214.13 122.03 212.28 123.1" fill="#6de0f6" opacity=".1" stroke-width="0"/><polygon points="215.99 125.24 214.13 124.17 215.99 123.1 217.84 124.17 215.99 125.24" fill="#6de0f6" stroke-width="0"/><polygon points="219.7 127.38 217.84 126.31 219.7 125.24 221.55 126.31 219.7 127.38" fill="#6de0f6" stroke-width="0"/><polygon points="223.41 129.52 221.55 128.45 223.41 127.38 225.26 128.45 223.41 129.52" fill="#6de0f6" stroke-width="0"/><polygon points="227.12 131.67 225.26 130.6 227.12 129.52 228.97 130.6 227.12 131.67" fill="#6de0f6" stroke-width="0"/><polygon points="230.83 133.81 228.97 132.74 230.83 131.67 232.68 132.74 230.83 133.81" fill="#6de0f6" opacity=".4" stroke-width="0"/><polygon points="234.54 135.95 232.68 134.88 234.54 133.81 236.39 134.88 234.54 135.95" fill="#6de0f6" stroke-width="0"/><polygon points="238.25 138.09 236.39 137.02 238.25 135.95 240.1 137.02 238.25 138.09" fill="#6de0f6" stroke-width="0"/><path d="M238.06,140.01c-1.36,0-2.65-.27-3.62-.83l-29.47-17.01c-.96-.55-1.48-1.32-1.48-2.17,0-1.01.75-2.03,2.07-2.79l28.29-16.34c2.45-1.42,6.18-1.57,8.31-.34l29.47,17.01c.96.55,1.48,1.32,1.48,2.17,0,1.01-.75,2.03-2.07,2.79l-28.29,16.34c-1.34.77-3.06,1.17-4.69,1.17ZM238.55,99.97c-1.58,0-3.25.39-4.56,1.14l-28.29,16.34c-1.23.71-1.93,1.64-1.93,2.55,0,.74.48,1.43,1.35,1.93l29.47,17.01c2.05,1.19,5.66,1.03,8.04-.34l28.29-16.34c1.23-.71,1.93-1.64,1.93-2.55,0-.74-.48-1.43-1.35-1.93l-29.47-17.01c-.93-.54-2.18-.8-3.48-.8Z" fill="#480689" stroke-width="0"/><path d="M7.9,132.23c0,.81-.66,1.47-1.47,1.47s-1.47-.66-1.47-1.47.66-1.47,1.47-1.47,1.47.66,1.47,1.47Z" fill="#d4088c" mix-blend-mode="lighten" stroke-width="0"/></g></g></svg>